<?xml version="1.0" encoding="utf-8" ?>
<svg xmlns="http://www.w3.org/2000/svg" xmlns:xlink="http://www.w3.org/1999/xlink" width="512" height="512">
	<path fill="#1A191C" d="M341.347 252.875C341.848 252.762 341.95 252.752 342.375 253.08C343.039 253.593 343.735 254.882 344.232 255.58C346.01 258.077 347.733 260.608 349.459 263.141C352.541 267.668 355.652 272.117 358.409 276.858C364.433 287.216 369.075 298.631 371.861 310.283C373.091 315.427 373.787 320.615 374.625 325.817C374.914 327.61 374.927 329.466 375.073 331.279C375.604 337.863 375.494 344.047 375.015 350.625C374.89 352.334 374.912 354.073 374.719 355.774C373.018 370.749 368.533 385.427 361.536 398.75C359.303 403.002 357.251 406.999 354.562 411.022C350.773 416.69 346.708 422.187 342.102 427.225C324.024 446.996 299.212 461.342 272.85 466.474C268.548 467.311 264.231 467.811 259.879 468.285C258.171 468.471 256.459 468.832 254.75 468.943C252.194 469.11 249.589 469.029 247.027 469.035C244.769 469.04 242.401 469.151 240.157 468.947C239.098 468.851 238.062 468.605 236.996 468.511C219.944 467.005 203.466 462.584 188.237 454.677C183.023 451.97 178.025 448.672 173.166 445.38C168.58 442.272 164.553 438.662 160.499 434.914C158.396 432.97 156.259 431.122 154.284 429.04C137.652 411.502 126.228 389.393 121.609 365.691C120.512 361.742 120.14 357.26 119.776 353.177C118.85 342.803 118.901 332.205 119.094 321.781C124.389 321.297 130.018 321.677 135.353 321.673C142.728 321.667 150.444 321.239 157.77 321.995C157.49 326.351 157.522 330.696 157.523 335.059C157.524 337.429 157.345 339.96 157.592 342.313C157.862 344.901 157.817 347.523 158.018 350.118C158.2 352.465 158.646 354.853 159.054 357.173C159.703 360.867 160.805 364.453 161.978 368C162.978 371.026 163.966 374.063 165.222 377C169.587 387.201 176.267 396.515 184.048 404.378C200.857 421.363 224.191 430.678 247.989 430.565C266.652 430.476 285.332 424.299 300.375 413.229C304.662 410.074 308.436 406.357 312.176 402.588C338.585 375.977 344.609 332.583 327.044 299.542C322.472 290.942 316.371 283.401 311.022 275.304C310.814 274.99 310.774 274.744 310.773 274.375C311.371 273.169 312.794 272.453 313.872 271.705C315.932 270.276 318.06 268.947 320.114 267.514C327.141 262.612 334.12 257.471 341.347 252.875Z"/>
	<path fill="#D4031B" d="M233.119 37.6008C237.052 37.11 241.521 37.5137 245.521 37.5139C254.306 37.5144 263.091 37.5159 271.876 37.5172C302.569 37.5215 333.281 37.7635 363.972 37.4425L363.865 75.938L326.326 75.9168C328.26 78.4643 330.308 80.9874 332.151 83.596C332.978 84.766 333.546 86.0625 334.304 87.2641C339.619 95.6795 343.669 104.811 346.145 114.46C346.383 115.387 346.845 116.215 347.11 117.125C347.526 118.557 347.745 120.225 347.917 121.716C348.07 123.042 348.68 124.214 348.902 125.521C349.062 126.464 349.011 127.467 349.124 128.422C349.686 133.184 350.031 137.757 350.044 142.553C350.049 144.554 350.191 146.705 349.94 148.688L349.319 155.502C347.976 163.601 346.383 171.269 343.486 179C335.071 201.456 319.317 220.216 298.875 232.703C294.831 235.173 290.502 237.167 286.191 239.117C281.965 240.918 277.463 242.637 273.03 243.835C270.462 244.53 267.792 245.004 265.202 245.625C263.233 246.097 261.005 246.079 259.123 246.61C257.149 247.167 255.253 246.83 253.283 247.179C247.93 248.127 241.879 247.657 236.5 247.169C231.185 246.687 226.288 246.122 221.077 244.886C220.175 244.672 219.242 244.651 218.341 244.417C213.625 243.188 208.776 241.292 204.263 239.432C202.195 238.58 199.635 237.733 197.756 236.541C196.774 235.918 195.695 235.572 194.687 235.009C191.929 233.466 189.212 231.859 186.576 230.114C173.811 221.67 162.543 209.957 154.618 196.89C152.556 193.492 150.858 189.893 149.026 186.375C146.484 181.496 144.664 175.877 143.268 170.559C142.953 169.358 142.445 168.207 142.173 167C139.169 153.698 138.522 139.214 140.723 125.742C141.163 123.049 141.42 119.933 142.316 117.368C143.859 112.952 144.819 108.406 146.566 104.022C152.686 88.67 162.324 74.4395 174.902 63.66C176.169 62.5741 177.338 61.3186 178.698 60.3528C180.368 59.1674 181.811 57.6789 183.5 56.5174C185.377 55.2263 187.291 53.7576 189.246 52.6008C194.131 49.71 199.357 47.3023 204.578 45.1109C205.854 44.5754 207.018 43.9035 208.362 43.5305C210.238 43.0096 211.97 41.9882 213.892 41.6315C215.436 41.3448 216.854 40.6992 218.373 40.375C223.253 39.3334 228.146 38.1379 233.119 37.6008ZM242.302 75.8934C240.023 76.1862 237.639 75.9773 235.403 76.3375C221.969 78.5021 210.016 84.2168 199.794 93.1636C198.62 94.1914 197.703 95.4265 196.568 96.4769C195.237 97.7086 194.065 99.3175 192.909 100.721C183.65 111.955 178.49 126.607 178.048 141.145C177.955 144.183 178.37 147.137 178.719 150.144C178.887 151.587 178.871 153.076 179.164 154.5C179.579 156.513 180.295 158.438 180.617 160.481C180.849 161.949 181.644 163.365 182.141 164.761C183.845 169.551 185.725 173.332 188.375 177.664C189.04 178.75 189.638 179.982 190.375 181.01C191.271 182.259 192.435 183.38 193.441 184.544C194.147 185.359 194.692 186.288 195.4 187.1C197.201 189.162 199.201 190.844 201.256 192.625C202.41 193.626 203.502 194.784 204.738 195.678C217.096 204.624 231.282 209.319 246.559 208.952C251.007 208.648 255.243 208.279 259.606 207.308C269.116 205.191 278.97 200.268 286.594 194.238C287.33 193.657 287.916 192.911 288.625 192.305C290.263 190.905 291.97 189.501 293.406 187.875C306.146 173.445 312.595 155.744 311.049 136.412C309.918 122.259 303.779 108.531 294.261 98.0641C293.144 96.8359 292.177 95.2203 290.875 94.1944C288.271 92.1426 285.768 89.8432 283.081 87.917C281.554 86.8227 279.936 85.9738 278.332 85.0118C276.949 84.1822 275.641 83.2316 274.137 82.6335C272.897 82.1404 271.743 81.4285 270.5 80.9507C265.158 78.8972 259.131 77.0315 253.45 76.2863C250.989 75.9635 248.406 76.2715 245.967 75.8422C244.813 75.6389 243.463 75.7685 242.302 75.8934Z"/>
</svg>
